HIERARCHY
ROOT joint_Root
{
	OFFSET 0.0 0.0 0.0
	CHANNELS 6 Xposition Yposition Zposition Zrotation Xrotation Yrotation 
	JOINT Hips
	{
		OFFSET 4.5925 91.4895 -427.239
		CHANNELS 6 Xposition Yposition Zposition Zrotation Xrotation Yrotation 
		JOINT Spine
		{
			OFFSET 15.7357 0.0 0.0
			CHANNELS 6 Xposition Yposition Zposition Zrotation Xrotation Yrotation 
			JOINT Chest
			{
				OFFSET 8.98455 -0.406207 0.0
				CHANNELS 6 Xposition Yposition Zposition Zrotation Xrotation Yrotation 
				JOINT Neck
				{
					OFFSET 16.3773 0.0 0.0
					CHANNELS 6 Xposition Yposition Zposition Zrotation Xrotation Yrotation 
					JOINT Head
					{
						OFFSET 6.45672 0.0 0.0
						CHANNELS 6 Xposition Yposition Zposition Zrotation Xrotation Yrotation 
						End Site
						{
							OFFSET 0.0 0.0 0.0
						}
					}
				}
				JOINT Shoulder_L
				{
					OFFSET 12.9942 -0.242716 4.98039
					CHANNELS 6 Xposition Yposition Zposition Zrotation Xrotation Yrotation 
					JOINT UpperArm_L
					{
						OFFSET 5.34809 0.0 0.0
						CHANNELS 6 Xposition Yposition Zposition Zrotation Xrotation Yrotation 
						JOINT LowerArm_L
						{
							OFFSET 24.3286 1.87007e-05 0.0
							CHANNELS 6 Xposition Yposition Zposition Zrotation Xrotation Yrotation 
							JOINT Hand_L
							{
								OFFSET 22.2916 0.0 0.0
								CHANNELS 6 Xposition Yposition Zposition Zrotation Xrotation Yrotation 
								End Site
								{
									OFFSET 0.0 0.0 0.0
								}
							}
						}
					}
				}
				JOINT Shoulder_R
				{
					OFFSET 12.9945 -0.242716 -4.98039
					CHANNELS 6 Xposition Yposition Zposition Zrotation Xrotation Yrotation 
					JOINT UpperArm_R
					{
						OFFSET -5.34813 0.0 0.0
						CHANNELS 6 Xposition Yposition Zposition Zrotation Xrotation Yrotation 
						JOINT LowerArm_R
						{
							OFFSET -24.3289 0.000322201 0.0
							CHANNELS 6 Xposition Yposition Zposition Zrotation Xrotation Yrotation 
							JOINT Hand_R
							{
								OFFSET -22.2915 -0.000108084 0.0
								CHANNELS 6 Xposition Yposition Zposition Zrotation Xrotation Yrotation 
								End Site
								{
									OFFSET 0.0 0.0 0.0
								}
							}
						}
					}
				}
			}
		}
		JOINT UpperLeg_L
		{
			OFFSET -2.19248 -6.46944 0.0
			CHANNELS 6 Xposition Yposition Zposition Zrotation Xrotation Yrotation 
			JOINT LowerLeg_L
			{
				OFFSET 39.0811 0.0 -1.23785e-05
				CHANNELS 6 Xposition Yposition Zposition Zrotation Xrotation Yrotation 
				JOINT Foot_L
				{
					OFFSET 40.9854 0.0 -1.26872e-05
					CHANNELS 6 Xposition Yposition Zposition Zrotation Xrotation Yrotation 
					JOINT Toes_L
					{
						OFFSET 11.7543 0.0 0.0
						CHANNELS 6 Xposition Yposition Zposition Zrotation Xrotation Yrotation 
						End Site
						{
							OFFSET 0.0 0.0 0.0
						}
					}
				}
			}
		}
		JOINT UpperLeg_R
		{
			OFFSET -2.19251 6.46944 0.0
			CHANNELS 6 Xposition Yposition Zposition Zrotation Xrotation Yrotation 
			JOINT LowerLeg_R
			{
				OFFSET -39.0811 -0.00228153 -0.0401928
				CHANNELS 6 Xposition Yposition Zposition Zrotation Xrotation Yrotation 
				JOINT Foot_R
				{
					OFFSET -40.9854 0.0 0.0
					CHANNELS 6 Xposition Yposition Zposition Zrotation Xrotation Yrotation 
					JOINT Toes_R
					{
						OFFSET -11.7543 0.0 0.0
						CHANNELS 6 Xposition Yposition Zposition Zrotation Xrotation Yrotation 
						End Site
						{
							OFFSET 0.0 0.0 0.0
						}
					}
				}
			}
		}
	}
}
MOTION
Frames:	6
Frame Time:	0.0333333
0.000000 0.000000 0.000000 0.000000 0.000000 -0.000000 -1.747750 91.129300 5.227750 89.813400 1.509280 3.815770 15.735700 0.000005 -0.000001 75.548000 88.252000 -76.330000 8.984550 -0.406207 -0.000000 -4.385780 -0.788914 -1.595210 16.377300 -0.000001 -0.000001 5.101740 -4.862510 2.875820 6.456720 -0.000001 -0.000000 0.895602 -5.971490 4.923260 12.994200 -0.242716 4.980390 -84.934600 -9.861210 -62.636100 5.348090 -0.000007 -0.000001 -52.596700 -53.429100 -65.351700 24.328600 0.000019 0.000005 2.039910 2.377800 -40.670700 22.291600 -0.000001 0.000005 19.366300 4.885140 9.696990 12.994500 -0.242716 -4.980390 92.624300 -6.647920 -68.401100 -5.348130 -0.000001 -0.000004 -68.415600 -58.040500 -79.376200 -24.328900 0.000322 -0.000009 -15.993100 -23.365800 -35.852400 -22.291500 -0.000108 -0.000004 28.329100 4.787850 11.536400 -2.192480 -6.469440 -0.000000 -175.292000 -9.701530 -1.006520 39.081100 -0.000007 -0.000012 -0.180705 0.374104 25.782400 40.985400 -0.000006 -0.000013 -0.546800 6.635070 -70.883400 11.754300 -0.000000 0.000003 -0.000209 -0.001922 -16.650000 -2.192510 6.469440 -0.000001 175.301000 23.437500 -178.964000 -39.081100 -0.002282 -0.040193 -0.068750 0.152081 25.353200 -40.985400 0.000008 0.000006 6.395370 14.320200 -73.091900 -11.754300 -0.000006 -0.000006 -0.002713 -0.037312 -18.090400
0.000000 0.000000 0.000000 0.000000 0.000000 -0.000000 -1.819330 91.202900 5.319500 89.773100 1.545750 3.290510 15.735700 0.000005 -0.000001 75.755900 88.666600 -76.531800 8.984550 -0.406207 -0.000000 -5.184680 -0.567832 -1.578890 16.377300 -0.000001 -0.000001 5.434310 -4.747170 2.679560 6.456720 -0.000001 -0.000000 1.257820 -6.035090 4.657030 12.994200 -0.242716 4.980390 -83.953000 -11.342000 -61.691900 5.348090 -0.000007 -0.000001 -53.117300 -55.510900 -75.382900 24.328600 0.000019 0.000005 1.449630 1.185030 -50.705000 22.291600 -0.000001 0.000005 23.008400 5.017490 6.963600 12.994500 -0.242716 -4.980390 93.425500 -8.405170 -67.731900 -5.348130 -0.000001 -0.000004 -68.790000 -58.219300 -88.083000 -24.328900 0.000322 -0.000009 -19.509800 -19.213400 -47.123900 -22.291500 -0.000108 -0.000004 28.497100 5.046730 6.315910 -2.192480 -6.469440 -0.000000 -175.421000 -9.052880 -1.260250 39.081100 -0.000007 -0.000012 -0.177114 0.375239 25.267600 40.985400 -0.000006 -0.000013 -0.765799 6.016410 -70.670700 11.754300 -0.000000 0.000003 -0.000235 -0.002121 -16.657200 -2.192510 6.469440 -0.000001 175.953000 23.011200 -179.489000 -39.081100 -0.002282 -0.040193 0.007119 -0.008095 25.187300 -40.985400 0.000008 0.000006 7.765560 13.342900 -73.236800 -11.754300 -0.000006 -0.000006 -0.002528 -0.035140 -18.002100
0.000000 0.000000 0.000000 0.000000 0.000000 -0.000000 -1.872070 91.268700 5.373110 89.642300 1.452740 2.832600 15.735700 0.000005 -0.000001 80.939300 88.859100 -81.650500 8.984550 -0.406207 -0.000000 -5.514140 -0.276518 -1.437080 16.377300 -0.000001 -0.000001 5.156390 -4.662330 2.685780 6.456720 -0.000001 -0.000000 1.377170 -6.165180 4.424160 12.994200 -0.242716 4.980390 -82.822300 -12.762900 -60.316000 5.348090 -0.000007 -0.000001 -56.227200 -58.692300 -88.068700 24.328600 0.000019 0.000005 4.744030 2.561720 -61.599500 22.291600 -0.000001 0.000005 26.753900 5.142830 4.161480 12.994500 -0.242716 -4.980390 94.299600 -10.117400 -66.830500 -5.348130 -0.000001 -0.000004 -67.081100 -60.009900 -95.801500 -24.328900 0.000322 -0.000009 -17.478200 -11.317900 -58.098700 -22.291500 -0.000108 -0.000004 30.134100 5.370500 -1.903860 -2.192480 -6.469440 -0.000000 -175.409000 -8.809270 -1.518290 39.081100 -0.000007 -0.000012 -0.173144 0.373061 24.897000 40.985400 -0.000006 -0.000013 -0.902537 5.606470 -70.510900 11.754300 -0.000000 0.000003 -0.000230 -0.002079 -16.655700 -2.192510 6.469440 -0.000001 176.371000 22.900500 179.930000 -39.081100 -0.002282 -0.040193 0.009621 -0.013409 25.197500 -40.985400 0.000008 0.000006 7.816920 13.260200 -72.750800 -11.754300 -0.000006 -0.000006 -0.002553 -0.035434 -18.014000
0.000000 0.000000 0.000000 0.000000 0.000000 -0.000000 -1.885620 91.326300 5.369560 89.518400 1.427570 2.394530 15.735700 0.000005 -0.000001 88.352200 88.988900 -88.984500 8.984550 -0.406207 -0.000000 -5.744300 0.016434 -1.265230 16.377300 -0.000001 -0.000001 4.735650 -4.392950 2.590710 6.456720 -0.000001 -0.000000 1.460230 -6.264590 4.210710 12.994200 -0.242716 4.980390 -81.336000 -14.532000 -58.731900 5.348090 -0.000007 -0.000001 -59.086700 -61.744800 -97.689200 24.328600 0.000019 0.000005 13.041200 5.102690 -68.978300 22.291600 -0.000001 0.000005 35.700600 5.305710 -0.008991 12.994500 -0.242716 -4.980390 95.274400 -11.781300 -65.671900 -5.348130 -0.000001 -0.000004 -59.180500 -64.246000 -97.118000 -24.328900 0.000322 -0.000009 -10.520600 -4.965070 -65.038000 -22.291500 -0.000108 -0.000004 38.576500 5.693310 -17.000000 -2.192480 -6.469440 -0.000000 -175.371000 -8.666430 -1.849850 39.081100 -0.000007 -0.000012 -0.174236 0.380110 24.626200 40.985400 -0.000006 -0.000013 -0.967081 5.438830 -70.359400 11.754300 -0.000000 0.000003 -0.000249 -0.002223 -16.660900 -2.192510 6.469440 -0.000001 176.612000 23.328200 179.608000 -39.081100 -0.002282 -0.040193 0.008983 -0.012222 24.891200 -40.985400 0.000008 0.000006 7.900930 13.675300 -72.512400 -11.754300 -0.000006 -0.000006 -0.002708 -0.037258 -18.088200
0.000000 0.000000 0.000000 0.000000 0.000000 -0.000000 -1.867710 91.405900 5.540560 89.573100 1.416870 1.700870 15.735700 0.000005 -0.000001 89.321100 89.353900 -90.039200 8.984550 -0.406207 -0.000000 -6.473040 0.073874 -1.434200 16.377300 -0.000001 -0.000001 5.002990 -4.182450 2.959430 6.456720 -0.000001 -0.000000 1.236190 -5.591100 4.125330 12.994200 -0.242716 4.980390 -80.457800 -15.081100 -57.134400 5.348090 -0.000007 -0.000001 -58.021500 -62.987100 -100.841000 24.328600 0.000019 0.000005 19.137600 7.773620 -68.703000 22.291600 -0.000001 0.000005 40.917500 5.312780 -0.285384 12.994500 -0.242716 -4.980390 96.004400 -12.464900 -64.019500 -5.348130 -0.000001 -0.000004 -49.759800 -65.491500 -92.869300 -24.328900 0.000322 -0.000009 -6.013080 -2.675160 -66.101300 -22.291500 -0.000108 -0.000004 47.609100 5.669890 -24.946400 -2.192480 -6.469440 -0.000000 -175.508000 -8.863460 -2.060000 39.081100 -0.000007 -0.000012 -0.163039 0.367930 23.899500 40.985400 -0.000006 -0.000013 -0.966559 5.573930 -70.112300 11.754300 -0.000000 0.000003 -0.000241 -0.002165 -16.658800 -2.192510 6.469440 -0.000001 176.690000 23.835000 179.273000 -39.081100 -0.002282 -0.040193 0.006771 -0.007640 24.348400 -40.985400 0.000008 0.000006 7.857820 14.225300 -72.289300 -11.754300 -0.000006 -0.000006 -0.002770 -0.037973 -18.117300
0.000000 0.000000 0.000000 0.000000 0.000000 -0.000000 -1.941790 91.361200 5.869490 89.608200 1.473770 1.766650 15.735700 0.000005 -0.000001 69.766900 89.506100 -70.509600 8.984550 -0.406207 -0.000000 -6.840380 -0.246377 -1.502380 16.377300 -0.000001 -0.000001 5.310930 -4.127650 3.210620 6.456720 -0.000001 -0.000000 1.608180 -4.908310 4.101370 12.994200 -0.242716 4.980390 -80.828100 -14.541800 -57.257000 5.348090 -0.000007 -0.000001 -51.346100 -62.637600 -93.168300 24.328600 0.000019 0.000005 12.911300 6.929050 -62.212800 22.291600 -0.000001 0.000005 32.611700 5.277480 0.783790 12.994500 -0.242716 -4.980390 95.817600 -11.811000 -63.537300 -5.348130 -0.000001 -0.000004 -44.273400 -62.377400 -87.270000 -24.328900 0.000322 -0.000009 -9.807470 -5.785500 -59.776100 -22.291500 -0.000108 -0.000004 39.093400 5.691270 -20.409200 -2.192480 -6.469440 -0.000000 -175.329000 -9.355290 -1.698280 39.081100 -0.000007 -0.000012 -0.167157 0.378634 23.820400 40.985400 -0.000006 -0.000013 -0.933725 6.140660 -70.289900 11.754300 -0.000000 0.000003 -0.000230 -0.002080 -16.655700 -2.192510 6.469440 -0.000001 176.548000 23.969900 179.765000 -39.081100 -0.002282 -0.040193 0.005601 -0.005107 24.126400 -40.985400 0.000008 0.000006 7.907070 14.269200 -72.619700 -11.754300 -0.000006 -0.000006 -0.002839 -0.038772 -18.149800
